<?xml version="1.0" encoding="UTF-8" standalone="no"?>
<svg
   xmlns:dc="http://purl.org/dc/elements/1.1/"
   xmlns:cc="http://creativecommons.org/ns#"
   xmlns:rdf="http://www.w3.org/1999/02/22-rdf-syntax-ns#"
   xmlns:svg="http://www.w3.org/2000/svg"
   xmlns="http://www.w3.org/2000/svg"
   xmlns:xlink="http://www.w3.org/1999/xlink"
   height="100"
   width="300"
   xml:space="preserve"
   viewBox="0 0 300 100"
   y="0px"
   x="0px"
   id="Capa_1"
   version="1.1"><metadata
   id="metadata8252"><rdf:RDF><cc:Work
       rdf:about=""><dc:format>image/svg+xml</dc:format><dc:type
         rdf:resource="http://purl.org/dc/dcmitype/StillImage" /><dc:title></dc:title></cc:Work></rdf:RDF></metadata><defs
   id="defs8250"><linearGradient
     id="linearGradient9321"><stop
       id="stop9317"
       offset="0"
       style="stop-color:#ffffff;stop-opacity:1" /><stop
       id="stop9319"
       offset="1"
       style="stop-color:#4d4d4d;stop-opacity:1" /></linearGradient><linearGradient
     id="linearGradient9311"><stop
       id="stop9307"
       offset="0"
       style="stop-color:#2b0022;stop-opacity:1;" /><stop
       id="stop9309"
       offset="1"
       style="stop-color:#2b0022;stop-opacity:0;" /></linearGradient><linearGradient
     id="linearGradient9193"><stop
       style="stop-color:#ffffff;stop-opacity:1"
       offset="0"
       id="stop9189" /><stop
       style="stop-color:#4d4d4d;stop-opacity:1"
       offset="1"
       id="stop9191" /></linearGradient><linearGradient
     id="linearGradient9185"><stop
       id="stop9181"
       offset="0"
       style="stop-color:#89931e;stop-opacity:1" /><stop
       id="stop9183"
       offset="1"
       style="stop-color:#c3881e;stop-opacity:0;" /></linearGradient><linearGradient
     id="linearGradient9025"><stop
       id="stop9021"
       offset="0"
       style="stop-color:#ffffff;stop-opacity:1" /><stop
       id="stop9023"
       offset="1"
       style="stop-color:#727375;stop-opacity:0" /></linearGradient><linearGradient
     id="linearGradient8866-5-6"><stop
       id="stop8862"
       offset="0"
       style="stop-color:#ffffff;stop-opacity:1;" /><stop
       id="stop8864"
       offset="1"
       style="stop-color:#d88d3e;stop-opacity:0.93333334" /></linearGradient><radialGradient
     gradientUnits="userSpaceOnUse"
     gradientTransform="matrix(-0.04881676,-1.886751,0.69989008,-0.01810858,-32.430482,662.659)"
     r="87.762978"
     fy="425.3179"
     fx="92.104004"
     cy="425.3179"
     cx="92.104004"
     id="radialGradient8870"
     xlink:href="#linearGradient8866-5-6" /><radialGradient
     gradientUnits="userSpaceOnUse"
     gradientTransform="matrix(-0.85268144,0.11638014,-0.09639037,-0.75592469,722.58473,-226.39367)"
     r="71.309738"
     fy="118.06834"
     fx="393.25974"
     cy="118.06834"
     cx="393.25974"
     id="radialGradient9027-9"
     xlink:href="#linearGradient9193" /><radialGradient
     gradientUnits="userSpaceOnUse"
     gradientTransform="matrix(0.43808191,-0.00282489,9.9037974e-4,8.8989809,-33.374579,1668.9283)"
     r="34.690487"
     fy="-128.69577"
     fx="-280.24545"
     cy="-128.69577"
     cx="-280.24545"
     id="radialGradient9106"
     xlink:href="#linearGradient9025" /><radialGradient
     gradientUnits="userSpaceOnUse"
     gradientTransform="matrix(-0.41112156,0.0049998,0.06850404,-12.580342,-354.75668,364.70165)"
     r="34.76067"
     fy="-5.0218487"
     fx="-336.43094"
     cy="-5.0218487"
     cx="-336.43094"
     id="radialGradient9187"
     xlink:href="#linearGradient9185" /><radialGradient
     gradientUnits="userSpaceOnUse"
     gradientTransform="matrix(0.87267049,-0.14938339,0.0781244,0.77871631,49.457325,-337.05493)"
     r="71.309738"
     fy="118.06834"
     fx="393.25974"
     cy="118.06834"
     cx="393.25974"
     id="radialGradient9027-9-0"
     xlink:href="#linearGradient9321" /><radialGradient
     r="87.762978"
     fy="425.3179"
     fx="92.104004"
     cy="425.3179"
     cx="92.104004"
     gradientTransform="matrix(0.96927317,-1.3044585,0.48388876,0.35955179,-120.99522,-45.32685)"
     gradientUnits="userSpaceOnUse"
     id="radialGradient9274"
     xlink:href="#linearGradient8866-5-6" /><linearGradient
     gradientTransform="matrix(0.32744206,0,0,0.86102703,-1.513212,532.20213)"
     gradientUnits="userSpaceOnUse"
     y2="-154.15776"
     x2="-227.36391"
     y1="-154.15776"
     x1="-296.88425"
     id="linearGradient9315"
     xlink:href="#linearGradient9311" /><radialGradient
     gradientUnits="userSpaceOnUse"
     gradientTransform="matrix(0.89629305,-0.00387697,-0.00608241,0.10072084,-429.84659,40.39483)"
     r="69.940201"
     cy="450.46631"
     cx="593.28418"
     id="SVGID_1_"><stop
       id="stop5805"
       style="stop-color:#000000;stop-opacity:1"
       offset="0" /><stop
       id="stop5807"
       style="stop-color:#1a1a1a;stop-opacity:1"
       offset="0.0397" /><stop
       id="stop5809"
       style="stop-color:#333333;stop-opacity:1"
       offset="0.1087" /><stop
       id="stop5811"
       style="stop-color:#666666;stop-opacity:1"
       offset="0.1795" /><stop
       id="stop5813"
       style="stop-color:#999999;stop-opacity:1"
       offset="0.2507" /><stop
       id="stop5815"
       style="stop-color:#b3b3b3;stop-opacity:1"
       offset="0.3225" /><stop
       id="stop5817"
       style="stop-color:#b3b3b3;stop-opacity:1"
       offset="0.3951" /><stop
       id="stop5819"
       style="stop-color:#cccccc;stop-opacity:1"
       offset="0.4692" /><stop
       id="stop5821"
       style="stop-color:#FFFFFF"
       offset="0.5468" /></radialGradient></defs>


























<g
   transform="translate(0,-412)"
   id="layer2" /><g
   transform="matrix(0.19657985,0,0,0.19657985,-11.98558,81.816175)"
   id="g916"><rect
     x="-112.90981"
     y="253.35001"
     transform="rotate(-141.37301)"
     style="fill:#81194e;fill-opacity:0.99607843;stroke-width:0.86105043"
     width="59.861088"
     height="289.23114"
     id="rect8201-7" /><rect
     x="-197.45403"
     y="254.28859"
     transform="matrix(-0.77996973,-0.62581725,0.62267558,-0.78248011,0,0)"
     style="fill:#a33368;fill-opacity:0.96862745;stroke-width:0.85932422"
     width="59.741093"
     height="288.65131"
     id="rect8201-7-2" /><rect
     x="-155.45192"
     y="253.34758"
     transform="rotate(-141.37301)"
     style="fill:#a32565;fill-opacity:1;stroke-width:0.86105043"
     width="59.86195"
     height="289.23114"
     id="rect8203-5" /><rect
     x="-184.41632"
     y="254.36919"
     transform="matrix(-0.77983215,-0.62598867,0.62283059,-0.78235673,0,0)"
     style="opacity:0.444;fill:url(#radialGradient9106);fill-opacity:1;stroke-width:0.81588709"
     width="53.854168"
     height="288.65121"
     id="rect8201-7-2-9" /><polygon
     style="fill:#b5741a;fill-opacity:0.99607843"
     points="175.533,455.517 109.963,424.641 56.485,336.469 294.006,98.949 396.321,172.505 413.053,217.997 "
     id="polygon8199"
     transform="matrix(0.85573758,-0.09557818,0.09557818,0.85573758,54.613128,-367.70494)" /><rect
     x="-98.725815"
     y="254.85786"
     transform="matrix(-0.77171162,-0.63597263,0.61975141,-0.78479819,0,0)"
     style="opacity:0.85700001;fill:url(#linearGradient9315);fill-opacity:1;stroke-width:0.53097177"
     width="22.763882"
     height="289.22049"
     id="rect8201-7-1" /><rect
     x="-112.25054"
     y="150.88217"
     transform="rotate(-141.37301)"
     style="fill:#e7b322;fill-opacity:1;stroke-width:0.86105043"
     width="59.861088"
     height="289.23114"
     id="rect8201" /><path
     class="st0"
     d="m 187.01897,83.06093 c -0.30721,5.00226 -39.86729,9.2237 -88.36713,9.43203 -48.499815,0.20832 -87.575677,-3.67607 -87.278307,-8.67392 0.307219,-5.00226 39.867308,-9.2237 88.367138,-9.43203 48.499809,-0.20832 87.575669,3.67609 87.278299,8.67392 z"
     id="path5824"
     style="opacity:0.5;fill:url(#SVGID_1_);stroke-width:1.07420397" /><rect
     x="-154.79274"
     y="150.87981"
     transform="rotate(-141.37301)"
     style="fill:#c3881e;fill-opacity:1;stroke-width:0.86105043"
     width="59.86195"
     height="289.23114"
     id="rect8203" /><path
     style="fill:#4d4d4d;fill-opacity:1;stroke:none;stroke-width:0.86105865"
     d="m 430.50542,-219.36384 -116.43534,-93.03894 c -5.09525,-4.07143 -5.92497,-11.50006 -1.85352,-16.59532 l 18.8132,-23.54412 c 4.07142,-5.09523 11.50007,-5.92496 16.59531,-1.85354 l 116.4353,93.03894 c 5.09524,4.07141 5.92496,11.50008 1.85348,16.59534 l -18.81232,23.54401 c -4.0715,5.09437 -11.50102,5.92422 -16.59617,1.8536 z"
     id="path8205" /><path
     style="fill:#4d4d4d;fill-opacity:1;stroke-width:0.86105865"
     d="m 349.52911,-299.36075 18.63912,-23.32626 c 4.11859,-5.15418 11.63619,-5.99389 16.79042,-1.87536 l -37.22593,-29.7458 c -5.15425,-4.11855 -12.6719,-3.27889 -16.79045,1.87534 l -18.63911,23.32626 c -4.11851,5.15425 -3.27887,12.67188 1.87535,16.79042 l 37.22596,29.7458 c -5.15366,-4.11924 -5.99379,-11.63532 -1.87536,-16.79042 z"
     id="path8213" /><g
     id="g8217"
     transform="translate(0,-412)">
</g><g
     id="g8219"
     transform="translate(0,-412)">
</g><g
     id="g8221"
     transform="translate(0,-412)">
</g><g
     id="g8223"
     transform="translate(0,-412)">
</g><g
     id="g8225"
     transform="translate(0,-412)">
</g><g
     id="g8227"
     transform="translate(0,-412)">
</g><g
     id="g8229"
     transform="translate(0,-412)">
</g><g
     id="g8231"
     transform="translate(0,-412)">
</g><g
     id="g8233"
     transform="translate(0,-412)">
</g><g
     id="g8235"
     transform="translate(0,-412)">
</g><g
     id="g8237"
     transform="translate(0,-412)">
</g><g
     id="g8239"
     transform="translate(0,-412)">
</g><g
     id="g8241"
     transform="translate(0,-412)">
</g><g
     id="g8243"
     transform="translate(0,-412)">
</g><g
     id="g8245"
     transform="translate(0,-412)">
</g><path
     style="opacity:0.88200001;fill:url(#radialGradient9027-9);fill-opacity:1;stroke:none;stroke-width:0.88735145px;stroke-linecap:butt;stroke-linejoin:miter;stroke-opacity:1"
     d="M 444.53304,-218.66786 310.54913,-326.73439 c 0,0 -4.18177,7.49248 4.0459,14.73704 8.22769,7.24457 30.60069,24.55144 30.60069,24.55144 l 83.08081,66.39869 c 0,0 3.91943,3.46691 6.86476,4.03335 2.94532,0.56645 5.78725,-0.0666 6.95935,-0.47038 1.17207,-0.40372 2.43242,-1.18367 2.43242,-1.18367"
     id="path9019-2" /><path
     style="opacity:0.88200001;fill:url(#radialGradient9027-9-0);fill-opacity:1;stroke:none;stroke-width:0.91102147px;stroke-linecap:butt;stroke-linejoin:miter;stroke-opacity:1"
     d="m 333.22062,-354.50049 133.75261,107.23808 c 0,0 4.91147,-6.94923 -3.28575,-14.16389 -8.19725,-7.21468 -30.99826,-25.30156 -30.99826,-25.30156 l -82.95373,-65.86389 c 0,0 -3.90451,-3.45323 -6.89303,-3.93906 -2.98852,-0.48585 -5.90363,0.26567 -7.1097,0.72317 -1.20606,0.45748 -2.51216,1.30718 -2.51216,1.30718"
     id="path9019-2-5" /><rect
     x="-169.25192"
     y="151.17754"
     transform="matrix(-0.76819284,-0.64021853,0.61924088,-0.78520108,0,0)"
     style="fill:#be721f;fill-opacity:1;stroke-width:0.48412472"
     width="18.743286"
     height="292.01663"
     id="rect8203-1" /><path
     style="fill:#ffffff;fill-opacity:1;stroke-width:0.86105865"
     d="m 248.3608,5.32096 -50.59757,25.08752 -74.35607,36.86534 c -6.57224,3.25358 -13.60412,1.22056 -17.79715,-3.46109 -3.06938,-3.41046 -4.62142,-8.23805 -3.35822,-13.44334 l 19.55173,-80.65736 13.30599,-54.88579 z"
     id="path8207-3" /><path
     style="fill:url(#radialGradient9274);fill-opacity:1;stroke-width:0.86105865"
     d="m 248.36079,5.32095 -50.59756,25.08753 -74.35607,36.86534 c -6.57224,3.25358 -13.60412,1.22053 -17.79713,-3.46109 -3.06941,-3.41046 -4.62144,-8.23805 -3.35824,-13.44334 l 19.55173,-80.65736 13.30599,-54.88579 z"
     id="path8207" /><path
     style="fill:#3e3d4c;stroke-width:0.86471778"
     d="m 182.74285,38.04367 -59.35312,29.33977 c -7.05747,3.55732 -14.69377,0.98915 -18.77543,-4.4483 -2.49634,-3.31878 -3.65876,-7.70949 -2.5517,-12.42038 l 16.06152,-65.16272 z"
     id="path18" /><path
     style="fill:#2c3033;stroke-width:0.86471778"
     d="m 104.61525,62.93589 c -2.49632,-3.31877 -3.65876,-7.70947 -2.5517,-12.42038 l 16.06057,-65.16347 19.9636,16.50499 z"
     id="path22" /></g><g
   id="text920"
   style="font-style:normal;font-weight:normal;font-size:65.74182129px;line-height:1.25;font-family:sans-serif;letter-spacing:0px;word-spacing:0px;fill:#000000;fill-opacity:1;stroke:none;stroke-width:1.64354551"
   aria-label="Varnam"><path
     id="path941"
     style="font-style:normal;font-variant:normal;font-weight:normal;font-stretch:normal;font-family:Ubuntu;-inkscape-font-specification:Ubuntu;stroke-width:1.64354551"
     d="m 113.10498,47.717758 q -2.49819,7.2316 -4.79915,13.411332 -2.23522,6.113989 -4.4047,11.636302 -2.16948,5.522313 -4.338964,10.584433 -2.103738,4.996379 -4.33896,9.927015 H 89.240701 Q 87.005479,88.346204 84.835998,83.349825 82.73226,78.287705 80.497038,72.765392 78.327558,67.243079 76.026594,61.12909 73.725631,54.949358 71.293183,47.717758 h 7.034375 q 3.550059,10.387208 6.968633,19.985514 3.418575,9.598306 7.034375,18.013259 3.6158,-8.349212 7.034375,-17.947517 3.418579,-9.664048 6.902889,-20.051256 z" /><path
     id="path943"
     style="font-style:normal;font-variant:normal;font-weight:normal;font-stretch:normal;font-family:Ubuntu;-inkscape-font-specification:Ubuntu;stroke-width:1.64354551"
     d="m 128.93951,88.872138 q 2.16948,0 3.81303,-0.06574 1.70929,-0.131483 2.8269,-0.394451 V 78.221963 q -0.65742,-0.328709 -2.16948,-0.525934 -1.44632,-0.262968 -3.55006,-0.262968 -1.38058,0 -2.95838,0.197226 -1.51206,0.197225 -2.8269,0.854643 -1.2491,0.591677 -2.10374,1.709288 -0.85464,1.051869 -0.85464,2.826898 0,3.287091 2.10374,4.601928 2.10373,1.249094 5.71953,1.249094 z m -0.52593,-30.635689 q 3.68154,0 6.17973,0.986128 2.56393,0.920385 4.07599,2.695414 1.57781,1.709288 2.23523,4.141735 0.65741,2.366706 0.65741,5.259346 v 21.366092 q -0.7889,0.131483 -2.23522,0.394451 -1.38058,0.197225 -3.15561,0.394451 -1.77502,0.197225 -3.87876,0.328709 Q 130.25435,94 128.21635,94 q -2.89264,0 -5.32508,-0.591676 -2.43245,-0.591677 -4.20748,-1.840771 -1.77503,-1.314837 -2.76116,-3.418575 -0.98612,-2.103738 -0.98612,-5.06212 0,-2.826898 1.11761,-4.864895 1.18335,-2.037996 3.1556,-3.287091 1.97226,-1.249095 4.60193,-1.840771 2.62967,-0.591676 5.52231,-0.591676 0.92039,0 1.90652,0.131483 0.98613,0.06574 1.84077,0.262968 0.92038,0.131483 1.5778,0.262967 0.65742,0.131484 0.92039,0.197225 v -1.709287 q 0,-1.512062 -0.32871,-2.958382 -0.32871,-1.512062 -1.18335,-2.629673 -0.85465,-1.183353 -2.36671,-1.840771 -1.44632,-0.72316 -3.81303,-0.72316 -3.02412,0 -5.32508,0.460193 -2.23522,0.394451 -3.35284,0.854644 l -0.72316,-5.062121 q 1.18336,-0.525934 3.94451,-0.986127 2.76116,-0.525935 5.98251,-0.525935 z" /><path
     id="path945"
     style="font-style:normal;font-variant:normal;font-weight:normal;font-stretch:normal;font-family:Ubuntu;-inkscape-font-specification:Ubuntu;stroke-width:1.64354551"
     d="m 164.27471,58.367933 q 0.7889,0 1.77503,0.131484 1.05187,0.06574 2.038,0.262967 0.98613,0.131484 1.77503,0.328709 0.85464,0.131484 1.24909,0.262967 l -1.05187,5.325088 q -0.72316,-0.262967 -2.43245,-0.591676 -1.64354,-0.394451 -4.27321,-0.394451 -1.70929,0 -3.41858,0.394451 -1.64354,0.328709 -2.16948,0.460192 V 93.27684 h -6.11399 V 60.537413 q 2.16948,-0.788902 5.39083,-1.44632 3.22135,-0.72316 7.2316,-0.72316 z" /><path
     id="path947"
     style="font-style:normal;font-variant:normal;font-weight:normal;font-stretch:normal;font-family:Ubuntu;-inkscape-font-specification:Ubuntu;stroke-width:1.64354551"
     d="m 177.07588,60.07722 q 2.10374,-0.525934 5.58806,-1.117611 3.48431,-0.591676 8.0205,-0.591676 4.07599,0 6.77141,1.183353 2.69541,1.117611 4.27321,3.221349 1.64355,2.037997 2.30097,4.930637 0.65742,2.89264 0.65742,6.376956 V 93.27684 h -6.11399 V 75.395065 q 0,-3.155608 -0.4602,-5.39083 -0.39445,-2.235221 -1.38057,-3.6158 -0.98613,-1.380578 -2.62968,-1.972254 -1.64354,-0.657419 -4.07599,-0.657419 -0.98613,0 -2.038,0.06574 -1.05187,0.06574 -2.03799,0.197226 -0.92039,0.06574 -1.70929,0.197225 -0.72316,0.131484 -1.05187,0.197226 V 93.27684 h -6.11399 z" /><path
     id="path949"
     style="font-style:normal;font-variant:normal;font-weight:normal;font-stretch:normal;font-family:Ubuntu;-inkscape-font-specification:Ubuntu;stroke-width:1.64354551"
     d="m 226.39663,88.872138 q 2.16948,0 3.81302,-0.06574 1.70929,-0.131483 2.8269,-0.394451 V 78.221963 q -0.65742,-0.328709 -2.16948,-0.525934 -1.44632,-0.262968 -3.55006,-0.262968 -1.38058,0 -2.95838,0.197226 -1.51206,0.197225 -2.8269,0.854643 -1.24909,0.591677 -2.10374,1.709288 -0.85464,1.051869 -0.85464,2.826898 0,3.287091 2.10374,4.601928 2.10374,1.249094 5.71954,1.249094 z m -0.52594,-30.635689 q 3.68154,0 6.17973,0.986128 2.56393,0.920385 4.07599,2.695414 1.57781,1.709288 2.23523,4.141735 0.65741,2.366706 0.65741,5.259346 v 21.366092 q -0.7889,0.131483 -2.23522,0.394451 -1.38058,0.197225 -3.1556,0.394451 -1.77503,0.197225 -3.87877,0.328709 Q 227.71146,94 225.67347,94 q -2.89264,0 -5.32509,-0.591676 -2.43245,-0.591677 -4.20748,-1.840771 -1.77503,-1.314837 -2.76116,-3.418575 -0.98612,-2.103738 -0.98612,-5.06212 0,-2.826898 1.11761,-4.864895 1.18335,-2.037996 3.15561,-3.287091 1.97225,-1.249095 4.60192,-1.840771 2.62968,-0.591676 5.52232,-0.591676 0.92038,0 1.90651,0.131483 0.98613,0.06574 1.84077,0.262968 0.92039,0.131483 1.5778,0.262967 0.65742,0.131484 0.92039,0.197225 v -1.709287 q 0,-1.512062 -0.32871,-2.958382 -0.32871,-1.512062 -1.18335,-2.629673 -0.85465,-1.183353 -2.36671,-1.840771 -1.44632,-0.72316 -3.81302,-0.72316 -3.02413,0 -5.32509,0.460193 -2.23522,0.394451 -3.35283,0.854644 l -0.72316,-5.062121 q 1.18335,-0.525934 3.9445,-0.986127 2.76116,-0.525935 5.98251,-0.525935 z" /><path
     id="path951"
     style="font-style:normal;font-variant:normal;font-weight:normal;font-stretch:normal;font-family:Ubuntu;-inkscape-font-specification:Ubuntu;stroke-width:1.64354551"
     d="m 249.10941,60.07722 q 2.10373,-0.525934 5.52231,-1.117611 3.48431,-0.591676 8.0205,-0.591676 3.28709,0 5.52231,0.920386 2.23523,0.854643 3.74729,2.563931 0.46019,-0.328709 1.44632,-0.920386 0.98612,-0.591676 2.43244,-1.117611 1.44632,-0.591676 3.22135,-0.986127 1.77503,-0.460193 3.81303,-0.460193 3.94451,0 6.4427,1.183353 2.49819,1.117611 3.87877,3.221349 1.44632,2.103738 1.90651,4.996379 0.52593,2.89264 0.52593,6.311214 V 93.27684 h -6.11399 V 75.395065 q 0,-3.024124 -0.32871,-5.193604 -0.26296,-2.16948 -1.11761,-3.6158 -0.7889,-1.44632 -2.23522,-2.103739 -1.38058,-0.72316 -3.6158,-0.72316 -3.08986,0 -5.12786,0.854644 -1.97226,0.788902 -2.69542,1.44632 0.52594,1.709288 0.78891,3.747284 0.26296,2.037996 0.26296,4.273218 V 93.27684 h -6.11399 V 75.395065 q 0,-3.024124 -0.3287,-5.193604 -0.32871,-2.16948 -1.18336,-3.6158 -0.7889,-1.44632 -2.23522,-2.103739 -1.38058,-0.72316 -3.55006,-0.72316 -0.92038,0 -1.97225,0.06574 -1.05187,0.06574 -2.038,0.197226 -0.92038,0.06574 -1.70929,0.197225 -0.7889,0.131484 -1.05187,0.197226 V 93.27684 h -6.11398 z" /></g></svg>